<?xml version="1.0" encoding="UTF-8"?>
<svg width="500px" height="400px" viewBox="0 0 500 400" version="1.1" xmlns="http://www.w3.org/2000/svg" xmlns:xlink="http://www.w3.org/1999/xlink">
    <!-- Generator: Sketch 51.3 (57544) - http://www.bohemiancoding.com/sketch -->
    <title>use-case-diagram-amnesic-timesheet</title>
    <desc>Created with Sketch.</desc>
    <defs></defs>
    <g id="use-case-diagram-amnesic-timesheet" stroke="none" stroke-width="1" fill="none" fill-rule="evenodd">
        <rect fill="#FFFFFF" x="0" y="0" width="500" height="400"></rect>
        <g id="Actor" transform="translate(28.000000, 162.000000)">
            <g>
                <path d="M18.5,36.5 L0.5,47.5" id="arm-right" stroke="#979797" stroke-linecap="square" fill-rule="nonzero"></path>
                <path id="forearm-right" d="M20.9126536,60.782342 L16.0259659,51.986304 L10.9438107,59.4140694 L20.9126536,60.782342 Z M1.21765804,47.9126536 L13.6619698,56.4271827 L14.0746234,56.7095247 L14.6393073,55.8842174 L14.2266537,55.6018754 L1.78234196,47.0873464 L1.36968833,46.8050044 L0.805004412,47.6303117 L1.21765804,47.9126536 Z" fill="#979797" fill-rule="nonzero"></path>
                <path d="M28.5,39.5 L41.5,42.5" id="arm-left" stroke="#979797" stroke-linecap="square" fill-rule="nonzero"></path>
                <path id="forearm-left" d="M36.3244383,25.0318354 L35.271068,35.0388535 L43.6980306,31.8787425 L36.3244383,25.0318354 Z M42.9681646,41.3244383 L39.7547245,32.7552648 L39.5791628,32.2871002 L38.6428336,32.6382237 L38.8183954,33.1063883 L42.0318354,41.6755617 L42.2073971,42.1437263 L43.1437263,41.7926029 L42.9681646,41.3244383 Z" fill="#979797" fill-rule="nonzero"></path>
                <path d="M20.5,73.5 L12.5,98.5" id="leg-right" stroke="#979797" stroke-linecap="square" fill-rule="nonzero"></path>
                <path d="M25.5,73.5 L31.5,97.5" id="leg-left" stroke="#979797" stroke-linecap="square" fill-rule="nonzero"></path>
                <rect id="body" fill="#D8D8D8" fill-rule="nonzero" x="18" y="29" width="10" height="44"></rect>
                <circle id="head" fill="#D8D8D8" fill-rule="nonzero" cx="23" cy="15" r="15"></circle>
            </g>
        </g>
        <rect id="system-background" stroke="#979797" fill-rule="nonzero" x="111.5" y="61.5" width="299" height="299"></rect>
        <text id="Amnesic-Timesheet" font-family="Helvetica" font-size="14" font-weight="normal" letter-spacing="-0.388888896" fill="#333333">
            <tspan x="203.219618" y="36">Amnesic Timesheet</tspan>
        </text>
        <g id="use-case-f-1" transform="translate(213.000000, 273.000000)">
            <ellipse id="use-case-background" stroke="#979797" fill="#D8D8D8" fill-rule="nonzero" cx="50" cy="25" rx="50" ry="25"></ellipse>
            <text id="Reset-timesheet" font-family="Helvetica" font-size="12" font-weight="normal" letter-spacing="-0.333333343" fill="#333333">
                <tspan x="9.14648445" y="28">Reset timesheet</tspan>
            </text>
        </g>
        <g id="use-case-f-2" transform="translate(213.000000, 101.000000)">
            <ellipse id="use-case-background" stroke="#979797" fill="#D8D8D8" fill-rule="nonzero" cx="50" cy="25" rx="50" ry="25"></ellipse>
            <text id="Enter-reference-time" font-family="Helvetica" font-size="12" font-weight="normal" letter-spacing="-0.333333343" fill="#333333">
                <tspan x="11.1445313" y="23">Enter reference</tspan>
                <tspan x="36.4983724" y="37">times</tspan>
            </text>
        </g>
        <g id="use-case-f-3" transform="translate(213.000000, 187.000000)">
            <ellipse id="use-case-background" stroke="#979797" fill="#D8D8D8" fill-rule="nonzero" cx="50" cy="25" rx="50" ry="25"></ellipse>
            <text id="Log-activity" font-family="Helvetica" font-size="12" font-weight="normal" letter-spacing="-0.333333343" fill="#333333">
                <tspan x="22.4853516" y="28">Log activity</tspan>
            </text>
        </g>
        <path d="M82,212 L220,139" id="Line" stroke="#979797" stroke-linecap="square" fill-rule="nonzero"></path>
        <path d="M82,213 L214,213" id="Line" stroke="#979797" stroke-linecap="square" fill-rule="nonzero"></path>
        <path d="M82,212 L218,286" id="Line" stroke="#979797" stroke-linecap="square" fill-rule="nonzero"></path>
    </g>
</svg>